<svg xmlns="http://www.w3.org/2000/svg" viewBox="0 0 1200 800" width="1200" height="800" role="img" aria-label="Kitesurfistas en la playa de Los Lances con viento de levante"><title>Kitesurfistas en la playa de Los Lances con viento de levante</title><defs><linearGradient id="gaCielo" x1="0" y1="0" x2="0" y2="1"><stop offset="0%" stop-color="#12344B"/><stop offset="22%" stop-color="#2C6382"/><stop offset="45%" stop-color="#6F9DAF"/><stop offset="63%" stop-color="#C89B82"/><stop offset="79%" stop-color="#EFAE79"/><stop offset="92%" stop-color="#FAD9A8"/><stop offset="100%" stop-color="#FDEDCF"/></linearGradient><linearGradient id="gaMar" x1="0" y1="0" x2="0" y2="1"><stop offset="0%" stop-color="#EFCE9F"/><stop offset="14%" stop-color="#B9B39B"/><stop offset="38%" stop-color="#5B849A"/><stop offset="100%" stop-color="#2B5D76"/></linearGradient><linearGradient id="gaArena" x1="0" y1="0" x2="0" y2="1"><stop offset="0%" stop-color="#D9B78C"/><stop offset="22%" stop-color="#EAD2AE"/><stop offset="100%" stop-color="#D6B892"/></linearGradient><radialGradient id="gaSolHalo" cx="0.5" cy="0.5" r="0.5"><stop offset="0%" stop-color="#FFD79B" stop-opacity="0.62"/><stop offset="38%" stop-color="#F2A868" stop-opacity="0.24"/><stop offset="100%" stop-color="#F2A868" stop-opacity="0"/></radialGradient><radialGradient id="gaSolDisco" cx="0.5" cy="0.5" r="0.5"><stop offset="0%" stop-color="#FFF4E2"/><stop offset="62%" stop-color="#FFD79B"/><stop offset="100%" stop-color="#F2A868" stop-opacity="0.92"/></radialGradient><radialGradient id="gaBruma" cx="0.82" cy="0.46" r="0.62"><stop offset="0%" stop-color="#FFE0B0" stop-opacity="0.3"/><stop offset="100%" stop-color="#FFE0B0" stop-opacity="0"/></radialGradient><filter id="grano" x="0" y="0" width="100%" height="100%"><feTurbulence type="fractalNoise" baseFrequency="0.9" numOctaves="3" seed="3" result="ruido"/><feColorMatrix in="ruido" type="matrix" values="0 0 0 0 0.42 0 0 0 0 0.29 0 0 0 0 0.18 0 0 0 0.42 -0.18"/></filter><radialGradient id="vineta" cx="0.5" cy="0.46" r="0.78"><stop offset="55%" stop-color="#2B211C" stop-opacity="0"/><stop offset="100%" stop-color="#2B211C" stop-opacity="0.28"/></radialGradient></defs><rect width="1200" height="368" fill="url(#gaCielo)"/><circle cx="984" cy="357.5" r="165" fill="url(#gaSolHalo)"/><circle cx="984" cy="357.5" r="30" fill="url(#gaSolDisco)"/><path d="M0 346.35C7.69 347.14,30.77 349.52,46.15 351.09C61.54 352.66,76.92 354.45,92.31 355.78C107.69 357.1,123.08 358.36,138.46 359.05C153.85 359.74,169.23 360.06,184.62 359.92C200 359.77,215.38 359.09,230.77 358.17C246.15 357.26,261.54 355.81,276.92 354.44C292.31 353.08,307.69 351.36,323.08 349.95C338.46 348.55,353.85 347.09,369.23 346.03C384.62 344.98,400 344.14,415.38 343.62C430.77 343.1,446.15 342.95,461.54 342.9C476.92 342.86,492.31 343.17,507.69 343.33C523.08 343.48,538.46 343.83,553.85 343.85C569.23 343.87,584.62 343.83,600 343.46C615.38 343.09,630.77 342.44,646.15 341.63C661.54 340.82,676.92 339.65,692.31 338.59C707.69 337.53,723.08 336.21,738.46 335.26C753.85 334.31,769.23 333.35,784.62 332.91C800 332.47,815.38 332.3,830.77 332.63C846.15 332.96,861.54 333.78,876.92 334.89C892.31 336,907.69 337.65,923.08 339.3C938.46 340.94,953.85 343,969.23 344.75C984.62 346.51,1000 348.4,1015.38 349.82C1030.77 351.24,1046.15 352.49,1061.54 353.28C1076.92 354.08,1092.31 354.46,1107.69 354.57C1123.08 354.68,1138.46 354.32,1153.85 353.94C1169.23 353.56,1192.31 352.58,1200 352.31L1200 368L0 368Z" fill="#1A4560" opacity=".26"/><rect y="368" width="1200" height="208" fill="url(#gaMar)"/><ellipse cx="984" cy="368" rx="8.69" ry="0.7" fill="#FFD79B" opacity="0.5"/><ellipse cx="984.47" cy="377.22" rx="15.99" ry="0.79" fill="#FFD79B" opacity="0.49"/><ellipse cx="982.01" cy="387.72" rx="9.87" ry="0.94" fill="#FFD79B" opacity="0.48"/><ellipse cx="987.77" cy="398.67" rx="15.88" ry="1.02" fill="#FFD79B" opacity="0.46"/><ellipse cx="993.04" cy="412.2" rx="20.71" ry="1.18" fill="#FFD79B" opacity="0.45"/><ellipse cx="982.01" cy="426.63" rx="26.91" ry="1.76" fill="#FFD79B" opacity="0.43"/><ellipse cx="994.77" cy="442.61" rx="21.46" ry="1.39" fill="#FFD79B" opacity="0.41"/><ellipse cx="957.85" cy="460.12" rx="34.46" ry="2.27" fill="#FFD79B" opacity="0.39"/><ellipse cx="1014.62" cy="483.42" rx="32.6" ry="1.74" fill="#FFD79B" opacity="0.37"/><ellipse cx="948.78" cy="502.02" rx="44.96" ry="2.41" fill="#FFD79B" opacity="0.35"/><ellipse cx="1021.28" cy="526.14" rx="52.2" ry="2.69" fill="#FFD79B" opacity="0.32"/><ellipse cx="964.58" cy="557.99" rx="115.94" ry="3.88" fill="#FFD79B" opacity="0.28"/><rect x="884.43" y="414.08" width="22.61" height="1" rx="0.5" fill="#FAF5EE" opacity="0.21"/><rect x="103.47" y="414.9" width="80.47" height="1.02" rx="0.51" fill="#FAF5EE" opacity="0.29"/><rect x="42.13" y="416.39" width="71.03" height="1.06" rx="0.53" fill="#FAF5EE" opacity="0.1"/><rect x="292.86" y="418.32" width="63.6" height="1.1" rx="0.55" fill="#FAF5EE" opacity="0.31"/><rect x="590.18" y="420.61" width="98.07" height="1.16" rx="0.58" fill="#FAF5EE" opacity="0.14"/><rect x="328.3" y="423.21" width="77.94" height="1.23" rx="0.61" fill="#FAF5EE" opacity="0.27"/><rect x="1138.52" y="426.08" width="56.91" height="1.3" rx="0.65" fill="#FAF5EE" opacity="0.28"/><rect x="249.88" y="429.21" width="112.35" height="1.37" rx="0.69" fill="#FAF5EE" opacity="0.26"/><rect x="961.23" y="432.56" width="114.05" height="1.46" rx="0.73" fill="#FAF5EE" opacity="0.12"/><rect x="745.19" y="436.13" width="85.95" height="1.54" rx="0.77" fill="#FAF5EE" opacity="0.29"/><rect x="637.59" y="439.91" width="28.45" height="1.64" rx="0.82" fill="#FAF5EE" opacity="0.21"/><rect x="272.89" y="443.88" width="122.63" height="1.74" rx="0.87" fill="#FAF5EE" opacity="0.12"/><rect x="746.11" y="448.03" width="142.27" height="1.84" rx="0.92" fill="#FAF5EE" opacity="0.19"/><rect x="766.02" y="452.36" width="106.82" height="1.95" rx="0.97" fill="#FAF5EE" opacity="0.26"/><rect x="544" y="456.86" width="135.64" height="2.06" rx="1.03" fill="#FAF5EE" opacity="0.32"/><rect x="979.75" y="461.53" width="106.11" height="2.17" rx="1.09" fill="#FAF5EE" opacity="0.2"/><rect x="1136.59" y="466.35" width="104.21" height="2.29" rx="1.15" fill="#FAF5EE" opacity="0.23"/><rect x="232.72" y="471.33" width="122.01" height="2.41" rx="1.21" fill="#FAF5EE" opacity="0.19"/><rect x="267.46" y="476.45" width="71.65" height="2.54" rx="1.27" fill="#FAF5EE" opacity="0.13"/><rect x="682.26" y="481.72" width="176.72" height="2.67" rx="1.34" fill="#FAF5EE" opacity="0.19"/><rect x="879.83" y="487.13" width="200.49" height="2.8" rx="1.4" fill="#FAF5EE" opacity="0.18"/><rect x="92.44" y="492.68" width="55.88" height="2.94" rx="1.47" fill="#FAF5EE" opacity="0.2"/><rect x="784.18" y="498.36" width="95.07" height="3.08" rx="1.54" fill="#FAF5EE" opacity="0.13"/><rect x="788.31" y="504.17" width="149.07" height="3.23" rx="1.61" fill="#FAF5EE" opacity="0.22"/><rect x="985.47" y="510.11" width="87.35" height="3.37" rx="1.69" fill="#FAF5EE" opacity="0.26"/><rect x="680.43" y="516.17" width="80.72" height="3.52" rx="1.76" fill="#FAF5EE" opacity="0.32"/><rect x="178.39" y="522.36" width="220.84" height="3.67" rx="1.84" fill="#FAF5EE" opacity="0.17"/><rect x="989.32" y="528.66" width="259.87" height="3.83" rx="1.92" fill="#FAF5EE" opacity="0.19"/><rect x="223.1" y="535.09" width="95.58" height="3.99" rx="1.99" fill="#FAF5EE" opacity="0.2"/><rect x="595.63" y="541.63" width="142.54" height="4.15" rx="2.08" fill="#FAF5EE" opacity="0.16"/><rect x="427.81" y="548.28" width="251.42" height="4.32" rx="2.16" fill="#FAF5EE" opacity="0.18"/><rect x="223.29" y="555.05" width="189.85" height="4.48" rx="2.24" fill="#FAF5EE" opacity="0.2"/><rect x="66.15" y="561.93" width="99.45" height="4.65" rx="2.33" fill="#FAF5EE" opacity="0.16"/><rect x="144.83" y="568.91" width="152.74" height="4.82" rx="2.41" fill="#FAF5EE" opacity="0.22"/><rect y="576" width="1200" height="224" fill="url(#gaArena)"/><path d="M0 617.24C7.69 617.18,30.77 616.78,46.15 616.85C61.54 616.92,76.92 617.15,92.31 617.69C107.69 618.23,123.08 619.06,138.46 620.1C153.85 621.15,169.23 622.54,184.62 623.97C200 625.4,215.38 627.13,230.77 628.71C246.15 630.28,261.54 632.02,276.92 633.42C292.31 634.82,307.69 636.2,323.08 637.13C338.46 638.07,353.85 638.77,369.23 639.04C384.62 639.31,400 639.19,415.38 638.74C430.77 638.28,446.15 637.37,461.54 636.3C476.92 635.23,492.31 633.75,507.69 632.3C523.08 630.85,538.46 629.12,553.85 627.61C569.23 626.09,584.62 624.49,600 623.2C615.38 621.92,630.77 620.74,646.15 619.89C661.54 619.04,676.92 618.45,692.31 618.1C707.69 617.75,723.08 617.72,738.46 617.78C753.85 617.84,769.23 618.19,784.62 618.45C800 618.71,815.38 619.14,830.77 619.33C846.15 619.52,861.54 619.72,876.92 619.6C892.31 619.48,907.69 619.2,923.08 618.63C938.46 618.06,953.85 617.2,969.23 616.18C984.62 615.16,1000 613.83,1015.38 612.51C1030.77 611.19,1046.15 609.62,1061.54 608.27C1076.92 606.92,1092.31 605.47,1107.69 604.39C1123.08 603.31,1138.46 602.33,1153.85 601.79C1169.23 601.26,1192.31 601.27,1200 601.17L1200 576L0 576Z" fill="#F2A868" opacity=".2"/><ellipse cx="984" cy="592" rx="132" ry="40" fill="#FFD79B" opacity=".26"/><path d="M0 577.3C7.69 577.8,30.77 579.14,46.15 580.28C61.54 581.41,76.92 582.95,92.31 584.12C107.69 585.29,123.08 586.6,138.46 587.3C153.85 587.99,169.23 588.44,184.62 588.27C200 588.11,215.38 587.38,230.77 586.32C246.15 585.26,261.54 583.54,276.92 581.91C292.31 580.28,307.69 578.2,323.08 576.55C338.46 574.89,353.85 573.18,369.23 572.01C384.62 570.84,400 569.99,415.38 569.54C430.77 569.08,446.15 569.15,461.54 569.27C476.92 569.4,492.31 569.97,507.69 570.29C523.08 570.61,538.46 571.09,553.85 571.21C569.23 571.33,584.62 571.27,600 571.01C615.38 570.75,630.77 570.13,646.15 569.63C661.54 569.14,676.92 568.36,692.31 568.03C707.69 567.69,723.08 567.37,738.46 567.62C753.85 567.86,769.23 568.47,784.62 569.49C800 570.51,815.38 572.1,830.77 573.73C846.15 575.35,861.54 577.49,876.92 579.25C892.31 581.01,907.69 582.96,923.08 584.29C938.46 585.62,953.85 586.71,969.23 587.21C984.62 587.71,1000 587.65,1015.38 587.29C1030.77 586.92,1046.15 585.92,1061.54 585C1076.92 584.08,1092.31 582.74,1107.69 581.75C1123.08 580.75,1138.46 579.71,1153.85 579.05C1169.23 578.4,1192.31 578.01,1200 577.8L1200 612L0 612Z" fill="#FAF5EE" opacity=".62"/><path d="M0 572.18C7.69 572.74,30.77 574.24,46.15 575.55C61.54 576.85,76.92 578.65,92.31 580.03C107.69 581.4,123.08 582.96,138.46 583.8C153.85 584.63,169.23 585.19,184.62 585.02C200 584.86,215.38 584.03,230.77 582.82C246.15 581.61,261.54 579.62,276.92 577.75C292.31 575.87,307.69 573.46,323.08 571.57C338.46 569.69,353.85 567.73,369.23 566.43C384.62 565.13,400 564.21,415.38 563.76C430.77 563.31,446.15 563.48,461.54 563.7C476.92 563.93,492.31 564.69,507.69 565.13C523.08 565.58,538.46 566.19,553.85 566.37C569.23 566.54,584.62 566.49,600 566.17C615.38 565.85,630.77 565.1,646.15 564.47C661.54 563.84,676.92 562.86,692.31 562.4C707.69 561.94,723.08 561.48,738.46 561.69C753.85 561.9,769.23 562.54,784.62 563.67C800 564.8,815.38 566.6,830.77 568.45C846.15 570.31,861.54 572.77,876.92 574.79C892.31 576.81,907.69 579.06,923.08 580.57C938.46 582.08,953.85 583.32,969.23 583.87C984.62 584.41,1000 584.3,1015.38 583.82C1030.77 583.35,1046.15 582.15,1061.54 581.04C1076.92 579.93,1092.31 578.34,1107.69 577.19C1123.08 576.03,1138.46 574.83,1153.85 574.1C1169.23 573.37,1192.31 573.02,1200 572.81" stroke="#FAF5EE" stroke-width="3.2" fill="none" opacity=".8"/><rect width="1200" height="800" fill="url(#gaBruma)"/><g transform="translate(180 136) rotate(-18)"><path d="M-88 0Q0 -109.12,88 0Q0 -45.76,-88 0Z" fill="#C2694A"/><path d="M-86.24 0Q0 -105.6,86.24 0" stroke="#FAF5EE" stroke-width="5.28" fill="none" opacity=".5"/><line x1="-44" y1="-45.32" x2="-44.88" y2="-18.48" stroke="#FAF5EE" stroke-width="4.4" opacity=".35"/><line x1="0" y1="-54.56" x2="0" y2="-22.88" stroke="#FAF5EE" stroke-width="4.4" opacity=".35"/><line x1="44" y1="-45.32" x2="44.88" y2="-18.48" stroke="#FAF5EE" stroke-width="4.4" opacity=".35"/></g><g transform="translate(444 80) rotate(12)"><path d="M-62 0Q0 -76.88,62 0Q0 -32.24,-62 0Z" fill="#57ABA6"/><path d="M-60.76 0Q0 -74.4,60.76 0" stroke="#FAF5EE" stroke-width="3.72" fill="none" opacity=".5"/><line x1="-31" y1="-31.93" x2="-31.62" y2="-13.02" stroke="#FAF5EE" stroke-width="3.1" opacity=".35"/><line x1="0" y1="-38.44" x2="0" y2="-16.12" stroke="#FAF5EE" stroke-width="3.1" opacity=".35"/><line x1="31" y1="-31.93" x2="31.62" y2="-13.02" stroke="#FAF5EE" stroke-width="3.1" opacity=".35"/></g><g transform="translate(684 168) rotate(-8)"><path d="M-52 0Q0 -64.48,52 0Q0 -27.04,-52 0Z" fill="#D98A86"/><path d="M-50.96 0Q0 -62.4,50.96 0" stroke="#FAF5EE" stroke-width="3.12" fill="none" opacity=".5"/><line x1="-26" y1="-26.78" x2="-26.52" y2="-10.92" stroke="#FAF5EE" stroke-width="2.6" opacity=".35"/><line x1="0" y1="-32.24" x2="0" y2="-13.52" stroke="#FAF5EE" stroke-width="2.6" opacity=".35"/><line x1="26" y1="-26.78" x2="26.52" y2="-10.92" stroke="#FAF5EE" stroke-width="2.6" opacity=".35"/></g><g transform="translate(912 96) rotate(16)"><path d="M-40 0Q0 -49.6,40 0Q0 -20.8,-40 0Z" fill="#F2A868"/><path d="M-39.2 0Q0 -48,39.2 0" stroke="#FAF5EE" stroke-width="2.4" fill="none" opacity=".5"/><line x1="-20" y1="-20.6" x2="-20.4" y2="-8.4" stroke="#FAF5EE" stroke-width="2" opacity=".35"/><line x1="0" y1="-24.8" x2="0" y2="-10.4" stroke="#FAF5EE" stroke-width="2" opacity=".35"/><line x1="20" y1="-20.6" x2="20.4" y2="-8.4" stroke="#FAF5EE" stroke-width="2" opacity=".35"/></g><line x1="217.5" y1="422" x2="154" y2="146" stroke="#2B211C" stroke-width="2.4" opacity=".5"/><line x1="238.5" y1="422" x2="206" y2="146" stroke="#2B211C" stroke-width="2.4" opacity=".5"/><g transform="translate(228 464) scale(1.05)"><circle cx="0" cy="-52" r="11" fill="#2B211C"/><path d="M-8-42h16l6 30h-28Z" fill="#2B211C"/><path d="M-10-12l-14 14 6 6 20-14Z" fill="#2B211C"/><path d="M10-12l16 12-6 8-22-12Z" fill="#2B211C"/><path d="M-30 2h60l-6 8h-48Z" fill="#C2694A"/><ellipse cx="0" cy="14" rx="42" ry="7" fill="#FAF5EE" opacity=".6"/></g><line x1="675.8" y1="463.2" x2="658" y2="178" stroke="#2B211C" stroke-width="2.4" opacity=".5"/><line x1="692.2" y1="463.2" x2="710" y2="178" stroke="#2B211C" stroke-width="2.4" opacity=".5"/><g transform="translate(684 496) scale(0.82)"><circle cx="0" cy="-52" r="11" fill="#2B211C"/><path d="M-8-42h16l6 30h-28Z" fill="#2B211C"/><path d="M-10-12l-14 14 6 6 20-14Z" fill="#2B211C"/><path d="M10-12l16 12-6 8-22-12Z" fill="#2B211C"/><path d="M-30 2h60l-6 8h-48Z" fill="#D98A86"/><ellipse cx="0" cy="14" rx="42" ry="7" fill="#FAF5EE" opacity=".6"/></g><path d="M0 768.17C7.69 768.39,30.77 769.76,46.15 769.51C61.54 769.25,76.92 768.27,92.31 766.63C107.69 764.99,123.08 762.54,138.46 759.67C153.85 756.81,169.23 753.17,184.62 749.45C200 745.72,215.38 741.41,230.77 737.32C246.15 733.24,261.54 728.84,276.92 724.93C292.31 721.01,307.69 717.11,323.08 713.85C338.46 710.59,353.85 707.64,369.23 705.35C384.62 703.06,400 701.31,415.38 700.1C430.77 698.9,446.15 698.34,461.54 698.12C476.92 697.89,492.31 698.29,507.69 698.74C523.08 699.19,538.46 700.12,553.85 700.84C569.23 701.56,584.62 702.51,600 703.05C615.38 703.6,630.77 704.11,646.15 704.12C661.54 704.13,676.92 703.86,692.31 703.13C707.69 702.41,723.08 701.23,738.46 699.77C753.85 698.31,769.23 696.36,784.62 694.37C800 692.39,815.38 690,830.77 687.88C846.15 685.75,861.54 683.42,876.92 681.63C892.31 679.84,907.69 678.11,923.08 677.11C938.46 676.11,953.85 675.47,969.23 675.62C984.62 675.76,1000 676.52,1015.38 677.99C1030.77 679.45,1046.15 681.68,1061.54 684.41C1076.92 687.15,1092.31 690.66,1107.69 694.38C1123.08 698.1,1138.46 702.48,1153.85 706.74C1169.23 711.01,1192.31 717.75,1200 719.95L1200 800L0 800Z" fill="#D3B893"/><path d="M0 782.17C7.69 783.09,30.77 786.12,46.15 787.68C61.54 789.24,76.92 790.87,92.31 791.54C107.69 792.22,123.08 792.46,138.46 791.72C153.85 790.98,169.23 789.39,184.62 787.11C200 784.82,215.38 781.51,230.77 778.02C246.15 774.53,261.54 770.15,276.92 766.18C292.31 762.21,307.69 757.77,323.08 754.18C338.46 750.58,353.85 747.1,369.23 744.61C384.62 742.12,400 740.27,415.38 739.25C430.77 738.23,446.15 738.14,461.54 738.47C476.92 738.81,492.31 740.07,507.69 741.26C523.08 742.46,538.46 744.27,553.85 745.66C569.23 747.05,584.62 748.59,600 749.6C615.38 750.61,630.77 751.34,646.15 751.71C661.54 752.08,676.92 751.94,692.31 751.83C707.69 751.72,723.08 751.15,738.46 751.03C753.85 750.92,769.23 750.66,784.62 751.14C800 751.62,815.38 752.39,830.77 753.9C846.15 755.41,861.54 757.59,876.92 760.21C892.31 762.83,907.69 766.26,923.08 769.63C938.46 773.01,953.85 777.02,969.23 780.43C984.62 783.84,1000 787.47,1015.38 790.09C1030.77 792.71,1046.15 794.99,1061.54 796.17C1076.92 797.34,1092.31 797.68,1107.69 797.14C1123.08 796.6,1138.46 794.97,1153.85 792.93C1169.23 790.9,1192.31 786.26,1200 784.93L1200 800L0 800Z" fill="#B9986F" opacity=".85"/><path d="M72 776Q66.68 739.59,58.71 715.32" stroke="#48573D" stroke-width="2.8" fill="none" stroke-linecap="round" opacity="0.88"/><path d="M70.3 776Q79.67 725.29,93.72 691.48" stroke="#48573D" stroke-width="2.8" fill="none" stroke-linecap="round" opacity="0.92"/><path d="M77.42 776Q68.91 720.01,56.16 682.69" stroke="#48573D" stroke-width="2.8" fill="none" stroke-linecap="round" opacity="0.82"/><path d="M78.16 776Q72.54 747.37,64.12 728.28" stroke="#48573D" stroke-width="2.8" fill="none" stroke-linecap="round" opacity="0.97"/><path d="M74.22 776Q62.24 724.91,44.27 690.85" stroke="#48573D" stroke-width="2.8" fill="none" stroke-linecap="round" opacity="0.8"/><path d="M60.08 776Q62.29 736.88,65.6 710.8" stroke="#48573D" stroke-width="2.8" fill="none" stroke-linecap="round" opacity="0.83"/><path d="M76.69 776Q84.47 746.4,96.14 726.67" stroke="#48573D" stroke-width="2.8" fill="none" stroke-linecap="round" opacity="0.96"/><path d="M40.66 776Q45.9 726.65,53.78 693.75" stroke="#48573D" stroke-width="2.8" fill="none" stroke-linecap="round" opacity="0.82"/><path d="M76.49 776Q71.8 742.85,64.77 720.74" stroke="#48573D" stroke-width="2.8" fill="none" stroke-linecap="round" opacity="0.99"/><path d="M138.89 776Q144.16 744.69,152.06 723.81" stroke="#48573D" stroke-width="2.32" fill="none" stroke-linecap="round" opacity="0.91"/><path d="M135.9 776Q134.61 752.03,132.68 736.04" stroke="#48573D" stroke-width="2.32" fill="none" stroke-linecap="round" opacity="0.8"/><path d="M160.3 776Q157.26 751.76,152.71 735.6" stroke="#48573D" stroke-width="2.32" fill="none" stroke-linecap="round" opacity="0.82"/><path d="M134.19 776Q129.72 745.5,123.03 725.17" stroke="#48573D" stroke-width="2.32" fill="none" stroke-linecap="round" opacity="0.98"/><path d="M132.99 776Q138.72 747.24,147.31 728.07" stroke="#48573D" stroke-width="2.32" fill="none" stroke-linecap="round" opacity="0.97"/><path d="M160.25 776Q157.47 732.88,153.3 704.13" stroke="#48573D" stroke-width="2.32" fill="none" stroke-linecap="round" opacity="0.94"/><path d="M131.13 776Q125.31 740.21,116.57 716.35" stroke="#48573D" stroke-width="2.32" fill="none" stroke-linecap="round" opacity="0.81"/><path d="M133.86 776Q126.4 744.06,115.22 722.77" stroke="#48573D" stroke-width="2.32" fill="none" stroke-linecap="round" opacity="0.86"/><path d="M145 776Q152.13 737.67,162.82 712.11" stroke="#48573D" stroke-width="2.32" fill="none" stroke-linecap="round" opacity="0.83"/><path d="M1047.25 776Q1060.99 726.3,1081.6 693.17" stroke="#48573D" stroke-width="2.56" fill="none" stroke-linecap="round" opacity="0.92"/><path d="M1040.92 776Q1037.25 750.3,1031.75 733.17" stroke="#48573D" stroke-width="2.56" fill="none" stroke-linecap="round" opacity="0.88"/><path d="M1052.94 776Q1046.77 745.75,1037.52 725.58" stroke="#48573D" stroke-width="2.56" fill="none" stroke-linecap="round" opacity="0.99"/><path d="M1065.07 776Q1054.38 724.55,1038.33 690.25" stroke="#48573D" stroke-width="2.56" fill="none" stroke-linecap="round" opacity="0.78"/><path d="M1052.18 776Q1064.17 731.53,1082.16 701.88" stroke="#48573D" stroke-width="2.56" fill="none" stroke-linecap="round" opacity="0.85"/><path d="M1065.92 776Q1057.32 741.44,1044.43 718.4" stroke="#48573D" stroke-width="2.56" fill="none" stroke-linecap="round" opacity="0.77"/><path d="M1060.85 776Q1056.32 746.83,1049.53 727.38" stroke="#48573D" stroke-width="2.56" fill="none" stroke-linecap="round" opacity="0.77"/><path d="M1055.69 776Q1062.6 724.62,1072.98 690.36" stroke="#48573D" stroke-width="2.56" fill="none" stroke-linecap="round" opacity="0.8"/><path d="M1043.5 776Q1034.16 740.96,1020.15 717.6" stroke="#48573D" stroke-width="2.56" fill="none" stroke-linecap="round" opacity="0.8"/><path d="M1125.27 776Q1132.36 744.18,1143 722.96" stroke="#48573D" stroke-width="3" fill="none" stroke-linecap="round" opacity="0.92"/><path d="M1115.04 776Q1120.28 743.26,1128.15 721.44" stroke="#48573D" stroke-width="3" fill="none" stroke-linecap="round" opacity="0.96"/><path d="M1155.55 776Q1161.43 718.52,1170.25 680.2" stroke="#48573D" stroke-width="3" fill="none" stroke-linecap="round" opacity="0.84"/><path d="M1126.66 776Q1131.79 717.6,1139.48 678.66" stroke="#48573D" stroke-width="3" fill="none" stroke-linecap="round" opacity="0.96"/><path d="M1162.41 776Q1165.31 735.22,1169.66 708.03" stroke="#48573D" stroke-width="3" fill="none" stroke-linecap="round" opacity="0.95"/><path d="M1163.78 776Q1163.68 738.41,1163.53 713.34" stroke="#48573D" stroke-width="3" fill="none" stroke-linecap="round" opacity="0.88"/><path d="M1137.23 776Q1131.89 733.33,1123.88 704.88" stroke="#48573D" stroke-width="3" fill="none" stroke-linecap="round" opacity="0.94"/><path d="M1155.13 776Q1144.09 716.34,1127.53 676.57" stroke="#48573D" stroke-width="3" fill="none" stroke-linecap="round" opacity="0.96"/><path d="M1161.41 776Q1154.57 731.53,1144.31 701.89" stroke="#48573D" stroke-width="3" fill="none" stroke-linecap="round" opacity="0.78"/><rect width="1200" height="800" filter="url(#grano)" opacity="0.42"/><rect width="1200" height="800" fill="url(#vineta)"/></svg>
