<svg xmlns="http://www.w3.org/2000/svg" viewBox="0 0 1600 1200" width="1600" height="1200" role="img" aria-label="Habitación Jardín abierta al patio de buganvillas"><title>Habitación Jardín abierta al patio de buganvillas</title><defs><linearGradient id="hjPared" x1="0" y1="0" x2="0" y2="1"><stop offset="0%" stop-color="#FDF7EE"/><stop offset="62%" stop-color="#F6EEE1"/><stop offset="100%" stop-color="#E3CFB2"/></linearGradient><linearGradient id="hjSuelo" x1="0" y1="0" x2="0" y2="1"><stop offset="0%" stop-color="#D9C3A2"/><stop offset="100%" stop-color="#C4A47C"/></linearGradient><clipPath id="hjVanoClip"><path d="M900 760L900 450A260 260 0 0 1 1420 450L1420 760Z"/></clipPath><linearGradient id="hjVanoCielo" x1="0" y1="0" x2="0" y2="1"><stop offset="0%" stop-color="#8FB9C6"/><stop offset="58%" stop-color="#D9CFB4"/><stop offset="100%" stop-color="#F3DFBC"/></linearGradient><linearGradient id="hjHaz" x1="0" y1="0" x2="0" y2="1"><stop offset="0%" stop-color="#FFD79B" stop-opacity="0.5"/><stop offset="100%" stop-color="#FFD79B" stop-opacity="0"/></linearGradient><filter id="grano" x="0" y="0" width="100%" height="100%"><feTurbulence type="fractalNoise" baseFrequency="0.9" numOctaves="3" seed="3" result="ruido"/><feColorMatrix in="ruido" type="matrix" values="0 0 0 0 0.42 0 0 0 0 0.29 0 0 0 0 0.18 0 0 0 0.42 -0.18"/></filter><radialGradient id="vineta" cx="0.5" cy="0.46" r="0.78"><stop offset="55%" stop-color="#2B211C" stop-opacity="0"/><stop offset="100%" stop-color="#2B211C" stop-opacity="0.28"/></radialGradient></defs><rect width="1600" height="810" fill="url(#hjPared)"/><rect y="810" width="1600" height="390" fill="url(#hjSuelo)"/><rect y="795.6" width="1600" height="14.4" fill="#FAF5EE" opacity=".8"/><g clip-path="url(#hjVanoClip)"><rect x="900" y="190" width="520" height="570" fill="url(#hjVanoCielo)"/><rect x="900" y="532" width="520" height="228" fill="#F1E4D2"/><rect x="900" y="532" width="520" height="11.4" fill="#D3B893" opacity=".6"/><path d="M1018.1 543.4Q1023.36 411.73,1031.02 304L1037.73 304Q1033.42 411.73,1031.98 543.4Z" fill="#48573D"/><path d="M1034.38 304Q973.59 284.32,912.81 328.04Q973.59 268.18,1034.38 304Z" fill="#48573D"/><path d="M1034.38 304Q982.68 235.29,930.99 286.76Q982.68 217.64,1034.38 304Z" fill="#48573D"/><path d="M1034.38 304Q1002.91 216.81,971.44 267.13Q1002.91 200.13,1034.38 304Z" fill="#48573D"/><path d="M1034.38 304Q1031.96 199.98,1029.53 253.35Q1031.96 182.63,1034.38 304Z" fill="#48573D"/><path d="M1034.38 304Q1065.5 219.06,1096.61 268.24Q1065.5 202.76,1034.38 304Z" fill="#48573D"/><path d="M1034.38 304Q1091.1 231.08,1147.82 286.67Q1091.1 211.97,1034.38 304Z" fill="#48573D"/><path d="M1034.38 304Q1092.09 290.47,1149.8 331.19Q1092.09 275.3,1034.38 304Z" fill="#48573D"/><path d="M1311.21 566.2Q1308.99 472.15,1303.35 395.2L1308.13 395.2Q1316.17 472.15,1321.13 566.2Z" fill="#7C8B6A"/><path d="M1305.74 395.2Q1266.1 378.19,1226.47 407.45Q1266.1 367.5,1305.74 395.2Z" fill="#7C8B6A"/><path d="M1305.74 395.2Q1278.55 356,1251.37 384.19Q1278.55 346.37,1305.74 395.2Z" fill="#7C8B6A"/><path d="M1305.74 395.2Q1288.8 321.96,1271.86 361.53Q1288.8 308.98,1305.74 395.2Z" fill="#7C8B6A"/><path d="M1305.74 395.2Q1313.23 338.55,1320.72 368.12Q1313.23 328.91,1305.74 395.2Z" fill="#7C8B6A"/><path d="M1305.74 395.2Q1336.42 356.44,1367.11 386.27Q1336.42 346.17,1305.74 395.2Z" fill="#7C8B6A"/><path d="M1305.74 395.2Q1356.36 376.96,1406.99 413.69Q1356.36 363.45,1305.74 395.2Z" fill="#7C8B6A"/><circle cx="1268.86" cy="476.01" r="45.79" fill="#48573D" opacity="0.66"/><circle cx="1269.03" cy="474.08" r="54.52" fill="#48573D" opacity="0.63"/><circle cx="1128.58" cy="498.88" r="51.95" fill="#48573D" opacity="0.6"/><circle cx="1178.78" cy="527.06" r="38.68" fill="#48573D" opacity="0.56"/><circle cx="1164.88" cy="499.32" r="51.26" fill="#48573D" opacity="0.59"/><circle cx="973.02" cy="387.8" r="8.72" fill="#E5926B" opacity="0.73"/><circle cx="952.65" cy="372.91" r="9.71" fill="#D98A86" opacity="0.61"/><circle cx="1076.44" cy="301.37" r="6.59" fill="#D98A86" opacity="0.83"/><circle cx="1010.79" cy="377.67" r="14.9" fill="#E5926B" opacity="0.68"/><circle cx="1053.05" cy="367.97" r="12.58" fill="#D98A86" opacity="0.66"/><circle cx="959.88" cy="430.02" r="12.45" fill="#D98A86" opacity="0.69"/><circle cx="1081.1" cy="429.15" r="8.9" fill="#E5926B" opacity="0.61"/><circle cx="967.42" cy="258.66" r="11.73" fill="#D98A86" opacity="0.66"/><circle cx="1025.5" cy="288.64" r="10.76" fill="#D98A86" opacity="0.91"/><circle cx="1062.31" cy="352.09" r="15.73" fill="#E5926B" opacity="0.63"/><circle cx="961.43" cy="393.54" r="16.63" fill="#D98A86" opacity="0.92"/><circle cx="1031.65" cy="489.07" r="9.49" fill="#D98A86" opacity="0.81"/><circle cx="977.69" cy="403.77" r="9.51" fill="#E5926B" opacity="0.69"/><circle cx="1089.09" cy="409.15" r="9.39" fill="#D98A86" opacity="0.67"/><circle cx="1096.34" cy="343.44" r="14.57" fill="#D98A86" opacity="0.65"/><circle cx="994.09" cy="405.55" r="9.51" fill="#E5926B" opacity="0.89"/><circle cx="1048.58" cy="404.31" r="16.34" fill="#D98A86" opacity="0.62"/><circle cx="1090.89" cy="323.75" r="12.16" fill="#D98A86" opacity="0.62"/><circle cx="1088.57" cy="404.37" r="9.17" fill="#E5926B" opacity="0.8"/><circle cx="976.18" cy="408.13" r="12.52" fill="#D98A86" opacity="0.66"/><circle cx="973.09" cy="462.99" r="9.89" fill="#D98A86" opacity="0.61"/><circle cx="1098.48" cy="377.86" r="16.28" fill="#E5926B" opacity="0.88"/><circle cx="1010.79" cy="432.66" r="8.16" fill="#D98A86" opacity="0.68"/><circle cx="973.89" cy="487.84" r="17.59" fill="#D98A86" opacity="0.66"/><circle cx="942.47" cy="386.93" r="11.83" fill="#E5926B" opacity="0.89"/><circle cx="966.53" cy="373.51" r="15.97" fill="#D98A86" opacity="0.73"/><path d="M1209.36 549.1Q1216.27 519.77,1226.62 500.21" stroke="#48573D" stroke-width="2.82" fill="none" stroke-linecap="round" opacity="0.95"/><path d="M1217.24 549.1Q1212.78 514.35,1206.08 491.18" stroke="#48573D" stroke-width="2.82" fill="none" stroke-linecap="round" opacity="0.75"/><path d="M1211.49 549.1Q1218.76 496.54,1229.65 461.49" stroke="#48573D" stroke-width="2.82" fill="none" stroke-linecap="round" opacity="0.8"/><path d="M1198.74 549.1Q1211.49 499.69,1230.61 466.74" stroke="#48573D" stroke-width="2.82" fill="none" stroke-linecap="round" opacity="0.92"/><path d="M1191.08 549.1Q1183.7 492.48,1172.64 454.73" stroke="#48573D" stroke-width="2.82" fill="none" stroke-linecap="round" opacity="0.82"/><path d="M1217.21 549.1Q1227.74 511.12,1243.53 485.81" stroke="#48573D" stroke-width="2.82" fill="none" stroke-linecap="round" opacity="0.83"/><path d="M1207.69 549.1Q1211.26 510.16,1216.62 484.19" stroke="#48573D" stroke-width="2.82" fill="none" stroke-linecap="round" opacity="0.78"/><path d="M1222.06 549.1Q1222.11 507.36,1222.18 479.53" stroke="#48573D" stroke-width="2.82" fill="none" stroke-linecap="round" opacity="0.8"/><path d="M1212.16 549.1Q1222.84 500.97,1238.85 468.88" stroke="#48573D" stroke-width="2.82" fill="none" stroke-linecap="round" opacity="0.81"/></g><path d="M900 760L900 450A260 260 0 0 1 1420 450L1420 760Z" fill="none" stroke="#FAF5EE" stroke-width="24"/><rect x="866" y="754" width="588" height="24" rx="10" fill="#FAF5EE"/><path d="M900 760L1420 760L1108 1140L510 1140Z" fill="url(#hjHaz)"/><path d="M300 580L300 370A120 120 0 0 1 540 370L540 580Z" fill="#D3B893" opacity=".5"/><path d="M314 566L314 370A106 106 0 0 1 526 370L526 566Z" fill="#E4D0B4" opacity=".55"/><path d="M370 566q-24-18-24-44t24-28q24 4 24 28t-24 44Z" fill="#C2694A"/><path d="M452 566q-18-14-18-34t18-22q18 4 18 22t-18 34Z" fill="#2E6E8E" opacity=".8"/><rect x="330" y="960" width="740" height="200" rx="8" fill="#D3B893"/><rect x="344.8" y="974" width="710.4" height="172" rx="6" fill="#7C8B6A" opacity=".82"/><rect x="367" y="1000" width="666" height="120" fill="#F1E4D2" opacity=".55"/><path d="M396.6 1020l19.24 40l-19.24 40l-19.24 -40Z" fill="#7C8B6A" opacity="0.58"/><path d="M472.45 1020l19.24 40l-19.24 40l-19.24 -40Z" fill="#5A463C" opacity="0.58"/><path d="M548.3 1020l19.24 40l-19.24 40l-19.24 -40Z" fill="#7C8B6A" opacity="0.6"/><path d="M624.15 1020l19.24 40l-19.24 40l-19.24 -40Z" fill="#5A463C" opacity="0.56"/><path d="M700 1020l19.24 40l-19.24 40l-19.24 -40Z" fill="#7C8B6A" opacity="0.51"/><path d="M775.85 1020l19.24 40l-19.24 40l-19.24 -40Z" fill="#5A463C" opacity="0.58"/><path d="M851.7 1020l19.24 40l-19.24 40l-19.24 -40Z" fill="#7C8B6A" opacity="0.65"/><path d="M927.55 1020l19.24 40l-19.24 40l-19.24 -40Z" fill="#5A463C" opacity="0.45"/><path d="M1003.4 1020l19.24 40l-19.24 40l-19.24 -40Z" fill="#7C8B6A" opacity="0.73"/><line x1="330" y1="960" x2="330" y2="948" stroke="#F1E4D2" stroke-width="2" opacity=".7"/><line x1="330" y1="1160" x2="330" y2="1172" stroke="#F1E4D2" stroke-width="2" opacity=".7"/><line x1="359.6" y1="960" x2="359.6" y2="948" stroke="#F1E4D2" stroke-width="2" opacity=".7"/><line x1="359.6" y1="1160" x2="359.6" y2="1172" stroke="#F1E4D2" stroke-width="2" opacity=".7"/><line x1="389.2" y1="960" x2="389.2" y2="948" stroke="#F1E4D2" stroke-width="2" opacity=".7"/><line x1="389.2" y1="1160" x2="389.2" y2="1172" stroke="#F1E4D2" stroke-width="2" opacity=".7"/><line x1="418.8" y1="960" x2="418.8" y2="948" stroke="#F1E4D2" stroke-width="2" opacity=".7"/><line x1="418.8" y1="1160" x2="418.8" y2="1172" stroke="#F1E4D2" stroke-width="2" opacity=".7"/><line x1="448.4" y1="960" x2="448.4" y2="948" stroke="#F1E4D2" stroke-width="2" opacity=".7"/><line x1="448.4" y1="1160" x2="448.4" y2="1172" stroke="#F1E4D2" stroke-width="2" opacity=".7"/><line x1="478" y1="960" x2="478" y2="948" stroke="#F1E4D2" stroke-width="2" opacity=".7"/><line x1="478" y1="1160" x2="478" y2="1172" stroke="#F1E4D2" stroke-width="2" opacity=".7"/><line x1="507.6" y1="960" x2="507.6" y2="948" stroke="#F1E4D2" stroke-width="2" opacity=".7"/><line x1="507.6" y1="1160" x2="507.6" y2="1172" stroke="#F1E4D2" stroke-width="2" opacity=".7"/><line x1="537.2" y1="960" x2="537.2" y2="948" stroke="#F1E4D2" stroke-width="2" opacity=".7"/><line x1="537.2" y1="1160" x2="537.2" y2="1172" stroke="#F1E4D2" stroke-width="2" opacity=".7"/><line x1="566.8" y1="960" x2="566.8" y2="948" stroke="#F1E4D2" stroke-width="2" opacity=".7"/><line x1="566.8" y1="1160" x2="566.8" y2="1172" stroke="#F1E4D2" stroke-width="2" opacity=".7"/><line x1="596.4" y1="960" x2="596.4" y2="948" stroke="#F1E4D2" stroke-width="2" opacity=".7"/><line x1="596.4" y1="1160" x2="596.4" y2="1172" stroke="#F1E4D2" stroke-width="2" opacity=".7"/><line x1="626" y1="960" x2="626" y2="948" stroke="#F1E4D2" stroke-width="2" opacity=".7"/><line x1="626" y1="1160" x2="626" y2="1172" stroke="#F1E4D2" stroke-width="2" opacity=".7"/><line x1="655.6" y1="960" x2="655.6" y2="948" stroke="#F1E4D2" stroke-width="2" opacity=".7"/><line x1="655.6" y1="1160" x2="655.6" y2="1172" stroke="#F1E4D2" stroke-width="2" opacity=".7"/><line x1="685.2" y1="960" x2="685.2" y2="948" stroke="#F1E4D2" stroke-width="2" opacity=".7"/><line x1="685.2" y1="1160" x2="685.2" y2="1172" stroke="#F1E4D2" stroke-width="2" opacity=".7"/><line x1="714.8" y1="960" x2="714.8" y2="948" stroke="#F1E4D2" stroke-width="2" opacity=".7"/><line x1="714.8" y1="1160" x2="714.8" y2="1172" stroke="#F1E4D2" stroke-width="2" opacity=".7"/><line x1="744.4" y1="960" x2="744.4" y2="948" stroke="#F1E4D2" stroke-width="2" opacity=".7"/><line x1="744.4" y1="1160" x2="744.4" y2="1172" stroke="#F1E4D2" stroke-width="2" opacity=".7"/><line x1="774" y1="960" x2="774" y2="948" stroke="#F1E4D2" stroke-width="2" opacity=".7"/><line x1="774" y1="1160" x2="774" y2="1172" stroke="#F1E4D2" stroke-width="2" opacity=".7"/><line x1="803.6" y1="960" x2="803.6" y2="948" stroke="#F1E4D2" stroke-width="2" opacity=".7"/><line x1="803.6" y1="1160" x2="803.6" y2="1172" stroke="#F1E4D2" stroke-width="2" opacity=".7"/><line x1="833.2" y1="960" x2="833.2" y2="948" stroke="#F1E4D2" stroke-width="2" opacity=".7"/><line x1="833.2" y1="1160" x2="833.2" y2="1172" stroke="#F1E4D2" stroke-width="2" opacity=".7"/><line x1="862.8" y1="960" x2="862.8" y2="948" stroke="#F1E4D2" stroke-width="2" opacity=".7"/><line x1="862.8" y1="1160" x2="862.8" y2="1172" stroke="#F1E4D2" stroke-width="2" opacity=".7"/><line x1="892.4" y1="960" x2="892.4" y2="948" stroke="#F1E4D2" stroke-width="2" opacity=".7"/><line x1="892.4" y1="1160" x2="892.4" y2="1172" stroke="#F1E4D2" stroke-width="2" opacity=".7"/><line x1="922" y1="960" x2="922" y2="948" stroke="#F1E4D2" stroke-width="2" opacity=".7"/><line x1="922" y1="1160" x2="922" y2="1172" stroke="#F1E4D2" stroke-width="2" opacity=".7"/><line x1="951.6" y1="960" x2="951.6" y2="948" stroke="#F1E4D2" stroke-width="2" opacity=".7"/><line x1="951.6" y1="1160" x2="951.6" y2="1172" stroke="#F1E4D2" stroke-width="2" opacity=".7"/><line x1="981.2" y1="960" x2="981.2" y2="948" stroke="#F1E4D2" stroke-width="2" opacity=".7"/><line x1="981.2" y1="1160" x2="981.2" y2="1172" stroke="#F1E4D2" stroke-width="2" opacity=".7"/><line x1="1010.8" y1="960" x2="1010.8" y2="948" stroke="#F1E4D2" stroke-width="2" opacity=".7"/><line x1="1010.8" y1="1160" x2="1010.8" y2="1172" stroke="#F1E4D2" stroke-width="2" opacity=".7"/><line x1="1040.4" y1="960" x2="1040.4" y2="948" stroke="#F1E4D2" stroke-width="2" opacity=".7"/><line x1="1040.4" y1="1160" x2="1040.4" y2="1172" stroke="#F1E4D2" stroke-width="2" opacity=".7"/><line x1="1070" y1="960" x2="1070" y2="948" stroke="#F1E4D2" stroke-width="2" opacity=".7"/><line x1="1070" y1="1160" x2="1070" y2="1172" stroke="#F1E4D2" stroke-width="2" opacity=".7"/><clipPath id="hjCamaCab"><path d="M445 840L445 793.4A205 205 0 0 1 855 793.4L855 840Z"/></clipPath><path d="M430 840L430 793.4A220 220 0 0 1 870 793.4L870 840Z" fill="#D3B893"/><path d="M445 840L445 793.4A205 205 0 0 1 855 793.4L855 840Z" fill="#E4D0B4"/><g clip-path="url(#hjCamaCab)"><line x1="470.63" y1="573.4" x2="470.63" y2="840" stroke="#B9986F" stroke-width="2" opacity=".5"/><line x1="496.25" y1="573.4" x2="496.25" y2="840" stroke="#B9986F" stroke-width="2" opacity=".5"/><line x1="521.88" y1="573.4" x2="521.88" y2="840" stroke="#B9986F" stroke-width="2" opacity=".5"/><line x1="547.5" y1="573.4" x2="547.5" y2="840" stroke="#B9986F" stroke-width="2" opacity=".5"/><line x1="573.13" y1="573.4" x2="573.13" y2="840" stroke="#B9986F" stroke-width="2" opacity=".5"/><line x1="598.75" y1="573.4" x2="598.75" y2="840" stroke="#B9986F" stroke-width="2" opacity=".5"/><line x1="624.38" y1="573.4" x2="624.38" y2="840" stroke="#B9986F" stroke-width="2" opacity=".5"/><line x1="650" y1="573.4" x2="650" y2="840" stroke="#B9986F" stroke-width="2" opacity=".5"/><line x1="675.63" y1="573.4" x2="675.63" y2="840" stroke="#B9986F" stroke-width="2" opacity=".5"/><line x1="701.25" y1="573.4" x2="701.25" y2="840" stroke="#B9986F" stroke-width="2" opacity=".5"/><line x1="726.88" y1="573.4" x2="726.88" y2="840" stroke="#B9986F" stroke-width="2" opacity=".5"/><line x1="752.5" y1="573.4" x2="752.5" y2="840" stroke="#B9986F" stroke-width="2" opacity=".5"/><line x1="778.13" y1="573.4" x2="778.13" y2="840" stroke="#B9986F" stroke-width="2" opacity=".5"/><line x1="803.75" y1="573.4" x2="803.75" y2="840" stroke="#B9986F" stroke-width="2" opacity=".5"/><line x1="829.38" y1="573.4" x2="829.38" y2="840" stroke="#B9986F" stroke-width="2" opacity=".5"/></g><rect x="400" y="860" width="500" height="80" rx="10" fill="#FAF5EE"/><rect x="415" y="935" width="470" height="75" fill="#F1E4D2"/><rect x="415" y="990" width="470" height="20" fill="#D3B893" opacity=".7"/><rect x="410" y="910" width="480" height="27.5" rx="4" fill="#7C8B6A" opacity=".92"/><rect x="410" y="910" width="480" height="8" fill="#FAF5EE" opacity=".28"/><rect x="440" y="832.5" width="180" height="55" rx="20" fill="#FAF5EE"/><rect x="650" y="832.5" width="180" height="55" rx="20" fill="#FAF5EE"/><rect x="540" y="850" width="95" height="45" rx="12.5" fill="#7C8B6A"/><rect x="650" y="852.5" width="85" height="42.5" rx="12.5" fill="#F1E4D2"/><path d="M1444.9 941.4h110.2l-14.5 98.6h-81.2Z" fill="#C2694A"/><rect x="1439.1" y="929.8" width="121.8" height="14.5" rx="3.48" fill="#94432E"/><path d="M1500 941.4Q1526 823.34,1586.68 744.63" stroke="#48573D" stroke-width="3.48" fill="none" stroke-linecap="round"/><ellipse cx="1513.02" cy="905.62" rx="13.05" ry="5.22" transform="rotate(36.67 1502.87 905.62)" fill="#7C8B6A"/><ellipse cx="1501.31" cy="869.85" rx="13.05" ry="5.22" transform="rotate(-19.33 1511.46 869.85)" fill="#7C8B6A"/><ellipse cx="1535.94" cy="834.07" rx="13.05" ry="5.22" transform="rotate(36.67 1525.79 834.07)" fill="#7C8B6A"/><ellipse cx="1535.7" cy="798.3" rx="13.05" ry="5.22" transform="rotate(-19.33 1545.85 798.3)" fill="#7C8B6A"/><ellipse cx="1581.78" cy="762.52" rx="13.05" ry="5.22" transform="rotate(36.67 1571.63 762.52)" fill="#7C8B6A"/><path d="M1500 941.4Q1517.33 805.17,1557.78 714.35" stroke="#48573D" stroke-width="3.48" fill="none" stroke-linecap="round"/><ellipse cx="1512.06" cy="900.12" rx="13.05" ry="5.22" transform="rotate(33.78 1501.91 900.12)" fill="#7C8B6A"/><ellipse cx="1497.49" cy="858.84" rx="13.05" ry="5.22" transform="rotate(-22.22 1507.64 858.84)" fill="#7C8B6A"/><ellipse cx="1527.34" cy="817.55" rx="13.05" ry="5.22" transform="rotate(33.78 1517.19 817.55)" fill="#7C8B6A"/><ellipse cx="1520.41" cy="776.27" rx="13.05" ry="5.22" transform="rotate(-22.22 1530.56 776.27)" fill="#7C8B6A"/><ellipse cx="1557.9" cy="734.99" rx="13.05" ry="5.22" transform="rotate(33.78 1547.75 734.99)" fill="#7C8B6A"/><path d="M1500 941.4Q1480.59 850.07,1435.29 789.18" stroke="#48573D" stroke-width="3.48" fill="none" stroke-linecap="round"/><ellipse cx="1508.01" cy="913.72" rx="13.05" ry="5.22" transform="rotate(21.53 1497.86 913.72)" fill="#7C8B6A"/><ellipse cx="1481.29" cy="886.05" rx="13.05" ry="5.22" transform="rotate(-34.47 1491.44 886.05)" fill="#7C8B6A"/><ellipse cx="1490.9" cy="858.37" rx="13.05" ry="5.22" transform="rotate(21.53 1480.75 858.37)" fill="#7C8B6A"/><ellipse cx="1455.62" cy="830.69" rx="13.05" ry="5.22" transform="rotate(-34.47 1465.77 830.69)" fill="#7C8B6A"/><ellipse cx="1456.67" cy="803.02" rx="13.05" ry="5.22" transform="rotate(21.53 1446.52 803.02)" fill="#7C8B6A"/><path d="M1500 941.4Q1488.39 819.38,1461.3 738.03" stroke="#48573D" stroke-width="3.48" fill="none" stroke-linecap="round"/><ellipse cx="1508.87" cy="904.42" rx="13.05" ry="5.22" transform="rotate(24.13 1498.72 904.42)" fill="#7C8B6A"/><ellipse cx="1484.73" cy="867.45" rx="13.05" ry="5.22" transform="rotate(-31.87 1494.88 867.45)" fill="#7C8B6A"/><ellipse cx="1498.64" cy="830.47" rx="13.05" ry="5.22" transform="rotate(24.13 1488.49 830.47)" fill="#7C8B6A"/><ellipse cx="1469.38" cy="793.49" rx="13.05" ry="5.22" transform="rotate(-31.87 1479.53 793.49)" fill="#7C8B6A"/><ellipse cx="1478.17" cy="756.52" rx="13.05" ry="5.22" transform="rotate(24.13 1468.02 756.52)" fill="#7C8B6A"/><path d="M1500 941.4Q1470.95 818.93,1403.16 737.29" stroke="#48573D" stroke-width="3.48" fill="none" stroke-linecap="round"/><ellipse cx="1506.95" cy="904.29" rx="13.05" ry="5.22" transform="rotate(18.32 1496.8 904.29)" fill="#7C8B6A"/><ellipse cx="1477.05" cy="867.18" rx="13.05" ry="5.22" transform="rotate(-37.68 1487.2 867.18)" fill="#7C8B6A"/><ellipse cx="1481.34" cy="830.07" rx="13.05" ry="5.22" transform="rotate(18.32 1471.19 830.07)" fill="#7C8B6A"/><ellipse cx="1438.63" cy="792.95" rx="13.05" ry="5.22" transform="rotate(-37.68 1448.78 792.95)" fill="#7C8B6A"/><ellipse cx="1430.12" cy="755.84" rx="13.05" ry="5.22" transform="rotate(18.32 1419.97 755.84)" fill="#7C8B6A"/><path d="M172 942h76l-10 68h-56Z" fill="#C2694A"/><rect x="168" y="934" width="84" height="10" rx="2.4" fill="#94432E"/><path d="M210 942Q189.91 870.48,143.03 822.81" stroke="#48573D" stroke-width="2.4" fill="none" stroke-linecap="round"/><ellipse cx="214.79" cy="920.33" rx="9" ry="3.6" transform="rotate(21.3 207.79 920.33)" fill="#7C8B6A"/><ellipse cx="194.14" cy="898.66" rx="9" ry="3.6" transform="rotate(-34.7 201.14 898.66)" fill="#7C8B6A"/><ellipse cx="197.07" cy="876.98" rx="9" ry="3.6" transform="rotate(21.3 190.07 876.98)" fill="#7C8B6A"/><ellipse cx="167.58" cy="855.31" rx="9" ry="3.6" transform="rotate(-34.7 174.58 855.31)" fill="#7C8B6A"/><ellipse cx="161.65" cy="833.64" rx="9" ry="3.6" transform="rotate(21.3 154.65 833.64)" fill="#7C8B6A"/><path d="M210 942Q188.51 868.45,138.36 819.41" stroke="#48573D" stroke-width="2.4" fill="none" stroke-linecap="round"/><ellipse cx="214.63" cy="919.71" rx="9" ry="3.6" transform="rotate(20.84 207.63 919.71)" fill="#7C8B6A"/><ellipse cx="193.53" cy="897.42" rx="9" ry="3.6" transform="rotate(-35.16 200.53 897.42)" fill="#7C8B6A"/><ellipse cx="195.69" cy="875.13" rx="9" ry="3.6" transform="rotate(20.84 188.69 875.13)" fill="#7C8B6A"/><ellipse cx="165.11" cy="852.84" rx="9" ry="3.6" transform="rotate(-35.16 172.11 852.84)" fill="#7C8B6A"/><ellipse cx="157.8" cy="830.55" rx="9" ry="3.6" transform="rotate(20.84 150.8 830.55)" fill="#7C8B6A"/><path d="M210 942Q226.46 862.94,264.88 810.23" stroke="#48573D" stroke-width="2.4" fill="none" stroke-linecap="round"/><ellipse cx="218.81" cy="918.04" rx="9" ry="3.6" transform="rotate(33.49 211.81 918.04)" fill="#7C8B6A"/><ellipse cx="210.26" cy="894.09" rx="9" ry="3.6" transform="rotate(-22.51 217.26 894.09)" fill="#7C8B6A"/><ellipse cx="233.33" cy="870.13" rx="9" ry="3.6" transform="rotate(33.49 226.33 870.13)" fill="#7C8B6A"/><ellipse cx="232.03" cy="846.17" rx="9" ry="3.6" transform="rotate(-22.51 239.03 846.17)" fill="#7C8B6A"/><ellipse cx="262.36" cy="822.21" rx="9" ry="3.6" transform="rotate(33.49 255.36 822.21)" fill="#7C8B6A"/><path d="M210 942Q217.78 868.33,235.93 819.21" stroke="#48573D" stroke-width="2.4" fill="none" stroke-linecap="round"/><ellipse cx="217.86" cy="919.67" rx="9" ry="3.6" transform="rotate(30.59 210.86 919.67)" fill="#7C8B6A"/><ellipse cx="206.43" cy="897.35" rx="9" ry="3.6" transform="rotate(-25.41 213.43 897.35)" fill="#7C8B6A"/><ellipse cx="224.72" cy="875.02" rx="9" ry="3.6" transform="rotate(30.59 217.72 875.02)" fill="#7C8B6A"/><ellipse cx="216.72" cy="852.7" rx="9" ry="3.6" transform="rotate(-25.41 223.72 852.7)" fill="#7C8B6A"/><ellipse cx="238.43" cy="830.37" rx="9" ry="3.6" transform="rotate(30.59 231.43 830.37)" fill="#7C8B6A"/><path d="M210 942Q195.63 850.2,162.11 789" stroke="#48573D" stroke-width="2.4" fill="none" stroke-linecap="round"/><ellipse cx="215.42" cy="914.18" rx="9" ry="3.6" transform="rotate(23.21 208.42 914.18)" fill="#7C8B6A"/><ellipse cx="196.67" cy="886.36" rx="9" ry="3.6" transform="rotate(-32.79 203.67 886.36)" fill="#7C8B6A"/><ellipse cx="202.75" cy="858.55" rx="9" ry="3.6" transform="rotate(23.21 195.75 858.55)" fill="#7C8B6A"/><ellipse cx="177.67" cy="830.73" rx="9" ry="3.6" transform="rotate(-32.79 184.67 830.73)" fill="#7C8B6A"/><ellipse cx="177.42" cy="802.91" rx="9" ry="3.6" transform="rotate(23.21 170.42 802.91)" fill="#7C8B6A"/><line x1="660" y1="0" x2="660" y2="200" stroke="#5A463C" stroke-width="3" opacity=".7"/><path d="M579.4 293.6Q660 163.6,740.6 293.6Z" fill="#D3B893"/><line x1="643.07" y1="218.72" x2="676.93" y2="218.72" stroke="#B9986F" stroke-width="2" opacity=".55"/><line x1="626.15" y1="237.44" x2="693.85" y2="237.44" stroke="#B9986F" stroke-width="2" opacity=".55"/><line x1="609.22" y1="256.16" x2="710.78" y2="256.16" stroke="#B9986F" stroke-width="2" opacity=".55"/><line x1="592.3" y1="274.88" x2="727.7" y2="274.88" stroke="#B9986F" stroke-width="2" opacity=".55"/><ellipse cx="660" cy="293.6" rx="80.6" ry="13" fill="#FFD79B" opacity=".85"/><rect width="1600" height="1200" filter="url(#grano)" opacity="0.36"/><rect width="1600" height="1200" fill="url(#vineta)"/></svg>
