<svg xmlns="http://www.w3.org/2000/svg" viewBox="0 0 1600 1200" width="1600" height="1200" role="img" aria-label="Suite Almara con salida a la terraza y vistas al Estrecho"><title>Suite Almara con salida a la terraza y vistas al Estrecho</title><defs><linearGradient id="saPared" x1="0" y1="0" x2="0" y2="1"><stop offset="0%" stop-color="#FDF7EE"/><stop offset="62%" stop-color="#F0E1CB"/><stop offset="100%" stop-color="#E3CFB2"/></linearGradient><linearGradient id="saSuelo" x1="0" y1="0" x2="0" y2="1"><stop offset="0%" stop-color="#E4D0B4"/><stop offset="100%" stop-color="#C4A47C"/></linearGradient><clipPath id="saVanoClip"><path d="M700 760L700 500A380 380 0 0 1 1460 500L1460 760Z"/></clipPath><linearGradient id="saVanoCielo" x1="0" y1="0" x2="0" y2="1"><stop offset="0%" stop-color="#5E96AE"/><stop offset="42%" stop-color="#A9B9B4"/><stop offset="74%" stop-color="#EEB182"/><stop offset="100%" stop-color="#FBDFB4"/></linearGradient><linearGradient id="saVanoMar" x1="0" y1="0" x2="0" y2="1"><stop offset="0%" stop-color="#D9BE99"/><stop offset="26%" stop-color="#6E90A0"/><stop offset="100%" stop-color="#33637C"/></linearGradient><linearGradient id="saHaz" x1="0" y1="0" x2="0" y2="1"><stop offset="0%" stop-color="#FFD79B" stop-opacity="0.5"/><stop offset="100%" stop-color="#FFD79B" stop-opacity="0"/></linearGradient><filter id="grano" x="0" y="0" width="100%" height="100%"><feTurbulence type="fractalNoise" baseFrequency="0.9" numOctaves="3" seed="3" result="ruido"/><feColorMatrix in="ruido" type="matrix" values="0 0 0 0 0.42 0 0 0 0 0.29 0 0 0 0 0.18 0 0 0 0.42 -0.18"/></filter><radialGradient id="vineta" cx="0.5" cy="0.46" r="0.78"><stop offset="55%" stop-color="#2B211C" stop-opacity="0"/><stop offset="100%" stop-color="#2B211C" stop-opacity="0.28"/></radialGradient></defs><rect width="1600" height="780" fill="url(#saPared)"/><rect y="780" width="1600" height="420" fill="url(#saSuelo)"/><rect y="765.6" width="1600" height="14.4" fill="#FAF5EE" opacity=".8"/><g clip-path="url(#saVanoClip)"><rect x="700" y="120" width="760" height="358.4" fill="url(#saVanoCielo)"/><g opacity="0.37"><ellipse cx="221.86" cy="193.48" rx="55.95" ry="26.02" fill="#FAF5EE"/><ellipse cx="317.27" cy="200.44" rx="102.42" ry="20.54" fill="#FAF5EE"/><ellipse cx="412.69" cy="199.59" rx="65.37" ry="23.57" fill="#FAF5EE"/><ellipse cx="508.1" cy="185.57" rx="55.26" ry="17.92" fill="#FAF5EE"/></g><g opacity="0.37"><ellipse cx="632.77" cy="257.01" rx="67.66" ry="12.95" fill="#FAF5EE"/><ellipse cx="692.37" cy="257.17" rx="67.32" ry="13.58" fill="#FAF5EE"/><ellipse cx="751.97" cy="250.92" rx="75.5" ry="20.96" fill="#FAF5EE"/><ellipse cx="811.58" cy="266.85" rx="41.15" ry="13.07" fill="#FAF5EE"/><ellipse cx="871.18" cy="252.5" rx="48.36" ry="17.81" fill="#FAF5EE"/></g><g opacity="0.36"><ellipse cx="26.16" cy="323.99" rx="34.47" ry="6.2" fill="#FAF5EE"/><ellipse cx="58.96" cy="327.21" rx="40.24" ry="7.1" fill="#FAF5EE"/><ellipse cx="91.75" cy="323.4" rx="44.35" ry="5.82" fill="#FAF5EE"/><ellipse cx="124.54" cy="326.38" rx="27.4" ry="5.94" fill="#FAF5EE"/><ellipse cx="157.34" cy="326.88" rx="41.19" ry="6.55" fill="#FAF5EE"/></g><circle cx="1216.8" cy="433.6" r="57" fill="#FFF4E2" opacity=".95"/><rect x="700" y="478.4" width="760" height="281.6" fill="url(#saVanoMar)"/><ellipse cx="1216.8" cy="478.4" rx="9.25" ry="0.7" fill="#FFF4E2" opacity="0.5"/><ellipse cx="1216.44" cy="484.64" rx="10.74" ry="0.75" fill="#FFF4E2" opacity="0.49"/><ellipse cx="1217.63" cy="492.12" rx="9.73" ry="0.78" fill="#FFF4E2" opacity="0.49"/><ellipse cx="1220.38" cy="497.43" rx="13" ry="0.92" fill="#FFF4E2" opacity="0.48"/><ellipse cx="1221.8" cy="507.56" rx="14.36" ry="0.88" fill="#FFF4E2" opacity="0.48"/><ellipse cx="1218.08" cy="521.83" rx="16.3" ry="1.05" fill="#FFF4E2" opacity="0.46"/><ellipse cx="1207.74" cy="530.74" rx="12.56" ry="1.04" fill="#FFF4E2" opacity="0.46"/><ellipse cx="1207.49" cy="545.09" rx="13.89" ry="1.27" fill="#FFF4E2" opacity="0.44"/><ellipse cx="1229.1" cy="558.06" rx="20.67" ry="1.36" fill="#FFF4E2" opacity="0.43"/><ellipse cx="1229.84" cy="576.11" rx="24.63" ry="1.52" fill="#FFF4E2" opacity="0.42"/><ellipse cx="1197.39" cy="593.91" rx="33.17" ry="1.45" fill="#FFF4E2" opacity="0.4"/><ellipse cx="1230.55" cy="615.61" rx="28.54" ry="1.54" fill="#FFF4E2" opacity="0.38"/><ellipse cx="1223.64" cy="636.15" rx="32.11" ry="1.83" fill="#FFF4E2" opacity="0.37"/><ellipse cx="1223.21" cy="656.73" rx="40" ry="2.63" fill="#FFF4E2" opacity="0.35"/><ellipse cx="1214.54" cy="678.23" rx="67.67" ry="2.73" fill="#FFF4E2" opacity="0.33"/><ellipse cx="1183.66" cy="704.77" rx="56.22" ry="3.58" fill="#FFF4E2" opacity="0.31"/><ellipse cx="1194.1" cy="737.81" rx="77.16" ry="3.98" fill="#FFF4E2" opacity="0.28"/><rect x="294.61" y="516.8" width="50.79" height="1" rx="0.5" fill="#FAF5EE" opacity="0.16"/><rect x="655.85" y="521.44" width="41.24" height="1.08" rx="0.54" fill="#FAF5EE" opacity="0.2"/><rect x="6.93" y="529.93" width="44.77" height="1.22" rx="0.61" fill="#FAF5EE" opacity="0.27"/><rect x="655.86" y="540.92" width="32.58" height="1.4" rx="0.7" fill="#FAF5EE" opacity="0.12"/><rect x="160.91" y="553.94" width="64.08" height="1.61" rx="0.81" fill="#FAF5EE" opacity="0.21"/><rect x="228.77" y="568.71" width="37.94" height="1.85" rx="0.93" fill="#FAF5EE" opacity="0.16"/><rect x="498.56" y="585.03" width="69.44" height="2.12" rx="1.06" fill="#FAF5EE" opacity="0.18"/><rect x="391.39" y="602.78" width="39.66" height="2.41" rx="1.21" fill="#FAF5EE" opacity="0.3"/><rect x="659.55" y="621.85" width="50.07" height="2.73" rx="1.36" fill="#FAF5EE" opacity="0.16"/><rect x="358.55" y="642.15" width="137.49" height="3.06" rx="1.53" fill="#FAF5EE" opacity="0.27"/><rect x="622.76" y="663.62" width="45.64" height="3.41" rx="1.71" fill="#FAF5EE" opacity="0.2"/><rect x="690.62" y="686.18" width="153.53" height="3.79" rx="1.89" fill="#FAF5EE" opacity="0.24"/><rect x="627.14" y="709.79" width="147.63" height="4.17" rx="2.09" fill="#FAF5EE" opacity="0.11"/><rect x="27.65" y="734.41" width="74.07" height="4.58" rx="2.29" fill="#FAF5EE" opacity="0.2"/><path d="M863.4 516.8h68.4l-12.16 14.08h-44.08Z" fill="#2B211C" opacity=".62"/><path d="M897.6 516.8v-54.4l30.4 54.4Z" fill="#2B211C" opacity=".55"/></g><path d="M700 760L700 500A380 380 0 0 1 1460 500L1460 760Z" fill="none" stroke="#FAF5EE" stroke-width="30"/><path d="M676 784L676 500A404 404 0 0 1 1484 500L1484 784Z" fill="none" stroke="#D3B893" stroke-width="7" opacity=".5"/><path d="M700 760L1460 760L1004 1180L130 1180Z" fill="url(#saHaz)"/><path d="M700 110Q640 420,712 760L610 760Q596 420,626 110Z" fill="#FAF5EE" opacity=".95"/><path d="M1460 110Q1536 400,1470 760L1568 760Q1580 400,1552 110Z" fill="#FAF5EE" opacity=".95"/><path d="M660 200Q636 440,668 700" stroke="#D3B893" stroke-width="4" fill="none" opacity=".45"/><path d="M1516 200Q1540 440,1508 700" stroke="#D3B893" stroke-width="4" fill="none" opacity=".45"/><rect x="40" y="936" width="800" height="210" rx="8.4" fill="#D3B893"/><rect x="56" y="950.7" width="768" height="180.6" rx="6.3" fill="#94432E" opacity=".82"/><rect x="80" y="978" width="720" height="126" fill="#F1E4D2" opacity=".55"/><path d="M112 999l20.8 42l-20.8 42l-20.8 -42Z" fill="#94432E" opacity="0.51"/><path d="M194 999l20.8 42l-20.8 42l-20.8 -42Z" fill="#5A463C" opacity="0.71"/><path d="M276 999l20.8 42l-20.8 42l-20.8 -42Z" fill="#94432E" opacity="0.49"/><path d="M358 999l20.8 42l-20.8 42l-20.8 -42Z" fill="#5A463C" opacity="0.7"/><path d="M440 999l20.8 42l-20.8 42l-20.8 -42Z" fill="#94432E" opacity="0.67"/><path d="M522 999l20.8 42l-20.8 42l-20.8 -42Z" fill="#5A463C" opacity="0.66"/><path d="M604 999l20.8 42l-20.8 42l-20.8 -42Z" fill="#94432E" opacity="0.53"/><path d="M686 999l20.8 42l-20.8 42l-20.8 -42Z" fill="#5A463C" opacity="0.73"/><path d="M768 999l20.8 42l-20.8 42l-20.8 -42Z" fill="#94432E" opacity="0.49"/><line x1="40" y1="936" x2="40" y2="923.4" stroke="#F1E4D2" stroke-width="2" opacity=".7"/><line x1="40" y1="1146" x2="40" y2="1158.6" stroke="#F1E4D2" stroke-width="2" opacity=".7"/><line x1="72" y1="936" x2="72" y2="923.4" stroke="#F1E4D2" stroke-width="2" opacity=".7"/><line x1="72" y1="1146" x2="72" y2="1158.6" stroke="#F1E4D2" stroke-width="2" opacity=".7"/><line x1="104" y1="936" x2="104" y2="923.4" stroke="#F1E4D2" stroke-width="2" opacity=".7"/><line x1="104" y1="1146" x2="104" y2="1158.6" stroke="#F1E4D2" stroke-width="2" opacity=".7"/><line x1="136" y1="936" x2="136" y2="923.4" stroke="#F1E4D2" stroke-width="2" opacity=".7"/><line x1="136" y1="1146" x2="136" y2="1158.6" stroke="#F1E4D2" stroke-width="2" opacity=".7"/><line x1="168" y1="936" x2="168" y2="923.4" stroke="#F1E4D2" stroke-width="2" opacity=".7"/><line x1="168" y1="1146" x2="168" y2="1158.6" stroke="#F1E4D2" stroke-width="2" opacity=".7"/><line x1="200" y1="936" x2="200" y2="923.4" stroke="#F1E4D2" stroke-width="2" opacity=".7"/><line x1="200" y1="1146" x2="200" y2="1158.6" stroke="#F1E4D2" stroke-width="2" opacity=".7"/><line x1="232" y1="936" x2="232" y2="923.4" stroke="#F1E4D2" stroke-width="2" opacity=".7"/><line x1="232" y1="1146" x2="232" y2="1158.6" stroke="#F1E4D2" stroke-width="2" opacity=".7"/><line x1="264" y1="936" x2="264" y2="923.4" stroke="#F1E4D2" stroke-width="2" opacity=".7"/><line x1="264" y1="1146" x2="264" y2="1158.6" stroke="#F1E4D2" stroke-width="2" opacity=".7"/><line x1="296" y1="936" x2="296" y2="923.4" stroke="#F1E4D2" stroke-width="2" opacity=".7"/><line x1="296" y1="1146" x2="296" y2="1158.6" stroke="#F1E4D2" stroke-width="2" opacity=".7"/><line x1="328" y1="936" x2="328" y2="923.4" stroke="#F1E4D2" stroke-width="2" opacity=".7"/><line x1="328" y1="1146" x2="328" y2="1158.6" stroke="#F1E4D2" stroke-width="2" opacity=".7"/><line x1="360" y1="936" x2="360" y2="923.4" stroke="#F1E4D2" stroke-width="2" opacity=".7"/><line x1="360" y1="1146" x2="360" y2="1158.6" stroke="#F1E4D2" stroke-width="2" opacity=".7"/><line x1="392" y1="936" x2="392" y2="923.4" stroke="#F1E4D2" stroke-width="2" opacity=".7"/><line x1="392" y1="1146" x2="392" y2="1158.6" stroke="#F1E4D2" stroke-width="2" opacity=".7"/><line x1="424" y1="936" x2="424" y2="923.4" stroke="#F1E4D2" stroke-width="2" opacity=".7"/><line x1="424" y1="1146" x2="424" y2="1158.6" stroke="#F1E4D2" stroke-width="2" opacity=".7"/><line x1="456" y1="936" x2="456" y2="923.4" stroke="#F1E4D2" stroke-width="2" opacity=".7"/><line x1="456" y1="1146" x2="456" y2="1158.6" stroke="#F1E4D2" stroke-width="2" opacity=".7"/><line x1="488" y1="936" x2="488" y2="923.4" stroke="#F1E4D2" stroke-width="2" opacity=".7"/><line x1="488" y1="1146" x2="488" y2="1158.6" stroke="#F1E4D2" stroke-width="2" opacity=".7"/><line x1="520" y1="936" x2="520" y2="923.4" stroke="#F1E4D2" stroke-width="2" opacity=".7"/><line x1="520" y1="1146" x2="520" y2="1158.6" stroke="#F1E4D2" stroke-width="2" opacity=".7"/><line x1="552" y1="936" x2="552" y2="923.4" stroke="#F1E4D2" stroke-width="2" opacity=".7"/><line x1="552" y1="1146" x2="552" y2="1158.6" stroke="#F1E4D2" stroke-width="2" opacity=".7"/><line x1="584" y1="936" x2="584" y2="923.4" stroke="#F1E4D2" stroke-width="2" opacity=".7"/><line x1="584" y1="1146" x2="584" y2="1158.6" stroke="#F1E4D2" stroke-width="2" opacity=".7"/><line x1="616" y1="936" x2="616" y2="923.4" stroke="#F1E4D2" stroke-width="2" opacity=".7"/><line x1="616" y1="1146" x2="616" y2="1158.6" stroke="#F1E4D2" stroke-width="2" opacity=".7"/><line x1="648" y1="936" x2="648" y2="923.4" stroke="#F1E4D2" stroke-width="2" opacity=".7"/><line x1="648" y1="1146" x2="648" y2="1158.6" stroke="#F1E4D2" stroke-width="2" opacity=".7"/><line x1="680" y1="936" x2="680" y2="923.4" stroke="#F1E4D2" stroke-width="2" opacity=".7"/><line x1="680" y1="1146" x2="680" y2="1158.6" stroke="#F1E4D2" stroke-width="2" opacity=".7"/><line x1="712" y1="936" x2="712" y2="923.4" stroke="#F1E4D2" stroke-width="2" opacity=".7"/><line x1="712" y1="1146" x2="712" y2="1158.6" stroke="#F1E4D2" stroke-width="2" opacity=".7"/><line x1="744" y1="936" x2="744" y2="923.4" stroke="#F1E4D2" stroke-width="2" opacity=".7"/><line x1="744" y1="1146" x2="744" y2="1158.6" stroke="#F1E4D2" stroke-width="2" opacity=".7"/><line x1="776" y1="936" x2="776" y2="923.4" stroke="#F1E4D2" stroke-width="2" opacity=".7"/><line x1="776" y1="1146" x2="776" y2="1158.6" stroke="#F1E4D2" stroke-width="2" opacity=".7"/><line x1="808" y1="936" x2="808" y2="923.4" stroke="#F1E4D2" stroke-width="2" opacity=".7"/><line x1="808" y1="1146" x2="808" y2="1158.6" stroke="#F1E4D2" stroke-width="2" opacity=".7"/><line x1="840" y1="936" x2="840" y2="923.4" stroke="#F1E4D2" stroke-width="2" opacity=".7"/><line x1="840" y1="1146" x2="840" y2="1158.6" stroke="#F1E4D2" stroke-width="2" opacity=".7"/><rect x="123.6" y="539.2" width="492.8" height="260.4" rx="28" fill="#D3B893"/><line x1="246.8" y1="556.56" x2="246.8" y2="799.6" stroke="#B9986F" stroke-width="3" opacity=".45"/><line x1="370" y1="556.56" x2="370" y2="799.6" stroke="#B9986F" stroke-width="3" opacity=".45"/><line x1="493.2" y1="556.56" x2="493.2" y2="799.6" stroke="#B9986F" stroke-width="3" opacity=".45"/><rect x="90" y="822" width="560" height="89.6" rx="11.2" fill="#FAF5EE"/><rect x="106.8" y="906" width="526.4" height="84" fill="#F1E4D2"/><rect x="106.8" y="967.6" width="526.4" height="22.4" fill="#D3B893" opacity=".7"/><rect x="101.2" y="878" width="537.6" height="30.8" rx="4.48" fill="#94432E" opacity=".92"/><rect x="101.2" y="878" width="537.6" height="8.96" fill="#FAF5EE" opacity=".28"/><rect x="134.8" y="791.2" width="201.6" height="61.6" rx="22.4" fill="#FAF5EE"/><rect x="370" y="791.2" width="201.6" height="61.6" rx="22.4" fill="#FAF5EE"/><rect x="246.8" y="810.8" width="106.4" height="50.4" rx="14" fill="#94432E"/><rect x="370" y="813.6" width="95.2" height="47.6" rx="14" fill="#D98A86"/><path d="M1120 1040q-16-190 96-190t96 190Z" fill="#D3B893"/><path d="M1148 1030q-12-150 68-150t68 150Z" fill="#E4D0B4"/><rect x="1172" y="960" width="88" height="52" rx="18" fill="#C2694A"/><rect x="1140" y="1040" width="16" height="60" fill="#B9986F"/><rect x="1276" y="1040" width="16" height="60" fill="#B9986F"/><ellipse cx="1000" cy="1046" rx="104" ry="26" fill="#B9986F"/><ellipse cx="1000" cy="1036" rx="104" ry="26" fill="#D3B893"/><rect x="992" y="1058" width="16" height="72" fill="#5A463C" opacity=".8"/><path d="M978 1036q-20-14-20-32t20-24q20 6 20 24t-20 32Z" fill="#94432E"/><line x1="430" y1="0" x2="430" y2="150" stroke="#5A463C" stroke-width="3" opacity=".7"/><path d="M312.2 286.8Q430 96.8,547.8 286.8Z" fill="#D3B893"/><line x1="405.26" y1="177.36" x2="454.74" y2="177.36" stroke="#B9986F" stroke-width="2" opacity=".55"/><line x1="380.52" y1="204.72" x2="479.48" y2="204.72" stroke="#B9986F" stroke-width="2" opacity=".55"/><line x1="355.79" y1="232.08" x2="504.21" y2="232.08" stroke="#B9986F" stroke-width="2" opacity=".55"/><line x1="331.05" y1="259.44" x2="528.95" y2="259.44" stroke="#B9986F" stroke-width="2" opacity=".55"/><ellipse cx="430" cy="286.8" rx="117.8" ry="19" fill="#FFD79B" opacity=".85"/><path d="M1455.4 964.4h129.2l-17 115.6h-95.2Z" fill="#C2694A"/><rect x="1448.6" y="950.8" width="142.8" height="17" rx="4.08" fill="#94432E"/><path d="M1520 964.4Q1431.7 880.56,1302.6 878.33Q1404.5 914.56,1520 964.4Z" fill="#48573D"/><path d="M1520 964.4Q1458.37 829.37,1355.95 775.94Q1431.17 863.37,1520 964.4Z" fill="#7C8B6A"/><path d="M1520 964.4Q1512.05 807.15,1463.31 731.49Q1484.85 841.15,1520 964.4Z" fill="#48573D"/><path d="M1520 964.4Q1562.68 832.08,1564.55 781.35Q1535.48 866.08,1520 964.4Z" fill="#7C8B6A"/><path d="M1520 964.4Q1614.25 838.76,1667.7 794.73Q1587.05 872.76,1520 964.4Z" fill="#48573D"/><path d="M1520 964.4Q1659.69 876.37,1758.59 869.94Q1632.49 910.37,1520 964.4Z" fill="#7C8B6A"/><rect width="1600" height="1200" filter="url(#grano)" opacity="0.36"/><rect width="1600" height="1200" fill="url(#vineta)"/></svg>
